<svg xmlns="http://www.w3.org/2000/svg" width="652" height="1077" viewBox="0 0 652 1077" fill="none"><g opacity="0.12"><path d="M711.171 795.756C541.969 737.321 437.857 665.03 511.383 527.47C551.102 453.154 682.176 405.438 829.832 411.101C847.127 411.76 864.561 411.281 881.959 411.016L844.556 305.956C780.617 327.159 716.141 347.591 653.105 370.067C487.366 429.168 384.839 543.048 412.522 662.926C435.266 761.449 550.486 806.266 679.328 834.837C715.256 842.812 765.002 848.22 758.658 885.491C756.665 897.132 747.887 904.21 736.078 908.627L831.064 890.548C829.192 837.684 768.759 815.651 711.171 795.756Z" fill="#98A2B3"></path><path d="M499.486 835.61C313.958 742.6 277.953 610.206 396.371 469.793C494.781 353.103 660.917 299.123 820.578 238.604L790.425 153.908C631.423 225.079 526.283 333.412 401.787 428.231C191.317 588.531 262.384 801.911 547.251 869.56C556.62 871.786 566.692 872.718 576.419 874.261C569.041 870.352 561.803 866.312 554.273 862.559C536.075 853.511 517.626 844.706 499.486 835.61Z" fill="#98A2B3"></path><path d="M697.28 719.395C800.182 750.066 896.125 788.184 913.593 874.837L991.776 859.956C942.178 775.309 846.429 724.874 726.477 690.486C665.131 672.898 617.975 642.241 620.684 591.333C623.37 540.36 669.185 511.267 739.262 500.452C803.006 490.616 860.496 508.285 919.888 517.539L903.037 470.205C871.621 468.47 839.921 467.625 809.188 463.695C703.382 450.172 603.132 486.94 574.505 551.295C544.068 619.735 599.733 690.322 697.28 719.395Z" fill="#98A2B3"></path></g></svg>