<svg xmlns="http://www.w3.org/2000/svg" width="1095" height="1161" viewBox="0 0 1095 1161" fill="none"><path opacity="0.04" d="M521.286 294.866C773.053 374.343 923.1 486.174 791.868 733.855C720.975 867.661 513.487 967.13 287.708 976.28C261.262 977.359 234.45 980.429 207.723 983.12L251.034 1160.27C351.971 1115.34 453.629 1071.67 553.35 1024.65C815.548 901.018 988.101 690.627 961.688 486.565C939.99 318.855 769.221 256.032 575.375 223.093C521.323 213.894 445.725 210.915 460.451 145.552C465.068 125.136 479.484 111.75 498.193 102.583L350.041 146.09C345.833 237.404 435.598 267.804 521.286 294.866Z" fill="black" fill-opacity="0.52"></path><path opacity="0.04" d="M532.371 425.323C378.605 385.417 236.513 331.721 221.321 183.891L99.3776 219.701C164.133 359.932 304.277 434.985 483.705 479.139C575.467 501.723 643.708 548.763 632.733 637.278C621.784 725.902 547.596 782.17 438.634 809.9C339.518 835.119 253.682 811.899 163.801 803.499L183.315 883.312C231.281 882.282 279.803 879.675 326.429 882.536C486.946 892.371 645.678 815.821 698.218 700.691C754.083 578.251 678.135 463.151 532.371 425.323Z" fill="black" fill-opacity="0.52"></path></svg>